<svg width="32" height="28" viewBox="0 0 32 28" fill="none" xmlns="http://www.w3.org/2000/svg">
<path d="M9.27237 26.0009C9.77445 26.0009 10.1815 25.5959 10.1815 25.0962C10.1815 24.5965 9.77445 24.1914 9.27237 24.1914C8.7703 24.1914 8.36328 24.5965 8.36328 25.0962C8.36328 25.5959 8.7703 26.0009 9.27237 26.0009Z" fill="black" stroke="black" stroke-width="2" stroke-linecap="round" stroke-linejoin="round"/>
<path d="M19.2724 26.0009C19.7744 26.0009 20.1815 25.5959 20.1815 25.0962C20.1815 24.5965 19.7744 24.1914 19.2724 24.1914C18.7703 24.1914 18.3633 24.5965 18.3633 25.0962C18.3633 25.5959 18.7703 26.0009 19.2724 26.0009Z" fill="black" stroke="black" stroke-width="2" stroke-linecap="round" stroke-linejoin="round"/>
<path d="M2 7H5.63636L8.07273 19.1148C8.15586 19.5313 8.38355 19.9055 8.71595 20.1718C9.04835 20.4381 9.46427 20.5796 9.89091 20.5714H18.7273C19.1539 20.5796 19.5698 20.4381 19.9022 20.1718C20.2346 19.9055 20.4623 19.5313 20.5455 19.1148L22 11.5238H6.54545" stroke="black" stroke-width="2" stroke-linecap="round" stroke-linejoin="round"/>
<circle cx="24" cy="8" r="7" fill="#FF66A0" stroke="white" stroke-width="2"/>
</svg>

