<svg width="24" height="24" viewBox="0 0 24 24" fill="none" xmlns="http://www.w3.org/2000/svg">
<path d="M9.27262 22.0009C9.77469 22.0009 10.1817 21.5959 10.1817 21.0962C10.1817 20.5965 9.77469 20.1914 9.27262 20.1914C8.77054 20.1914 8.36353 20.5965 8.36353 21.0962C8.36353 21.5959 8.77054 22.0009 9.27262 22.0009Z" fill="black" stroke="black" stroke-width="2" stroke-linecap="round" stroke-linejoin="round"/>
<path d="M19.2726 22.0009C19.7747 22.0009 20.1817 21.5959 20.1817 21.0962C20.1817 20.5965 19.7747 20.1914 19.2726 20.1914C18.7705 20.1914 18.3635 20.5965 18.3635 21.0962C18.3635 21.5959 18.7705 22.0009 19.2726 22.0009Z" fill="black" stroke="black" stroke-width="2" stroke-linecap="round" stroke-linejoin="round"/>
<path d="M2 3H5.63636L8.07273 15.1148C8.15586 15.5313 8.38355 15.9055 8.71595 16.1718C9.04835 16.4381 9.46427 16.5796 9.89091 16.5714H18.7273C19.1539 16.5796 19.5698 16.4381 19.9022 16.1718C20.2346 15.9055 20.4623 15.5313 20.5455 15.1148L22 7.52381H6.54545" stroke="black" stroke-width="2" stroke-linecap="round" stroke-linejoin="round"/>
</svg>
