<svg width="32" height="32" viewBox="0 0 32 32" fill="none" xmlns="http://www.w3.org/2000/svg">
<path d="M8.16667 2L4 7.6V27.2C4 27.9426 4.29266 28.6548 4.81359 29.1799C5.33453 29.705 6.04107 30 6.77778 30H26.2222C26.9589 30 27.6655 29.705 28.1864 29.1799C28.7073 28.6548 29 27.9426 29 27.2V7.6L24.8333 2H8.16667Z" stroke="#00CC96" stroke-width="2.5" stroke-linecap="round" stroke-linejoin="round"/>
<path d="M4 7.60156H29" stroke="#00CC96" stroke-width="2.5" stroke-linecap="round" stroke-linejoin="round"/>
<path d="M22.0554 13.1992C22.0554 14.6844 21.4701 16.1088 20.4283 17.159C19.3864 18.2092 17.9733 18.7992 16.4999 18.7992C15.0265 18.7992 13.6134 18.2092 12.5715 17.159C11.5297 16.1088 10.9443 14.6844 10.9443 13.1992" stroke="#00CC96" stroke-width="2.5" stroke-linecap="round" stroke-linejoin="round"/>
</svg>
