<svg width="32" height="32" viewBox="0 0 32 32" fill="none" xmlns="http://www.w3.org/2000/svg">
<path d="M27.8409 6.12177C27.1568 5.44911 26.3445 4.9155 25.4504 4.55144C24.5563 4.18738 23.598 4 22.6302 4C21.6625 4 20.7042 4.18738 19.8101 4.55144C18.916 4.9155 18.1037 5.44911 17.4195 6.12177L15.9996 7.51714L14.5798 6.12177C13.1978 4.76368 11.3234 4.0007 9.36905 4.0007C7.41466 4.0007 5.54031 4.76368 4.15835 6.12177C2.77638 7.47987 2 9.32185 2 11.2425C2 13.1631 2.77638 15.0051 4.15835 16.3632L5.57823 17.7586L15.9996 28L26.4211 17.7586L27.8409 16.3632C28.5254 15.6909 29.0684 14.8926 29.4389 14.0139C29.8093 13.1353 30 12.1936 30 11.2425C30 10.2914 29.8093 9.34967 29.4389 8.47104C29.0684 7.59241 28.5254 6.79412 27.8409 6.12177V6.12177Z" stroke="black" stroke-width="2.5" stroke-linecap="round" stroke-linejoin="round"/>
</svg>
