<svg width="24" height="24" viewBox="0 0 24 24" fill="none" xmlns="http://www.w3.org/2000/svg">
<path d="M16.5 3H7.5C5.01472 3 3 5.01472 3 7.5V16.5C3 18.9853 5.01472 21 7.5 21H16.5C18.9853 21 21 18.9853 21 16.5V7.5C21 5.01472 18.9853 3 16.5 3Z" stroke="black" stroke-width="2" stroke-linecap="round" stroke-linejoin="round"/>
<path d="M15.5995 11.4313C15.7106 12.1803 15.5827 12.9453 15.2339 13.6174C14.8852 14.2896 14.3334 14.8346 13.657 15.175C12.9806 15.5155 12.2141 15.634 11.4665 15.5137C10.719 15.3934 10.0283 15.0404 9.4929 14.505C8.95747 13.9695 8.6045 13.2789 8.4842 12.5313C8.3639 11.7837 8.4824 11.0172 8.82283 10.3409C9.16327 9.66449 9.70831 9.11268 10.3804 8.76394C11.0525 8.41519 11.8175 8.28725 12.5665 8.39832C13.3306 8.51161 14.0379 8.86764 14.5841 9.41379C15.1302 9.95995 15.4862 10.6673 15.5995 11.4313Z" stroke="black" stroke-width="2" stroke-linecap="round" stroke-linejoin="round"/>
<path d="M16.9502 7.05078H16.9584" stroke="black" stroke-width="2" stroke-linecap="round" stroke-linejoin="round"/>
</svg>
